<svg xmlns="http://www.w3.org/2000/svg" viewBox="0 0 400 300" width="0" height="0" class="illustration styles_illustrationTablet__1DWOa"><g id="_183_code_java_flatline" data-name="#183_code_java_flatline"><polygon points="301.94 181.31 300.78 190.54 317.56 239.23 376.31 238.56 377.66 230.5 301.94 181.31" fill="#fff"></polygon><path d="M317.56,239.73a.5.5,0,0,1-.47-.33l-16.78-48.7a.42.42,0,0,1,0-.22l1.16-9.23a.49.49,0,0,1,.77-.36l75.71,49.19a.49.49,0,0,1,.22.5l-1.34,8.06a.5.5,0,0,1-.49.42l-58.75.67Zm-16.27-49.24,16.63,48.24,58-.67,1.22-7.32-74.77-48.58Z" fill="#231f20"></path><path d="M318.93,230.84l-17-49.53,51.25-.24,24.46,49.43Z" fill="#fff"></path><path d="M318.93,231.34a.51.51,0,0,1-.47-.34l-17-49.53a.5.5,0,0,1,.47-.66l51.26-.24h0a.5.5,0,0,1,.45.27l24.46,49.44a.51.51,0,0,1,0,.48.49.49,0,0,1-.42.24l-58.72.34Zm-16.29-49.53,16.65,48.52,57.56-.33-24-48.43Z" fill="#231f20"></path><path d="M352.33,200.14H319.4a.5.5,0,0,1-.45-.28l-5.19-10.71a.48.48,0,0,1,0-.48.51.51,0,0,1,.43-.23h33.47a.49.49,0,0,1,.46.3l4.65,10.7a.49.49,0,0,1,0,.47A.5.5,0,0,1,352.33,200.14Zm-32.62-1h31.86l-4.22-9.7H315Z" fill="#d1d3d4"></path><line x1="318.93" y1="230.84" x2="317.56" y2="239.23" fill="#fff"></line><path d="M317.56,239.73h-.08a.51.51,0,0,1-.41-.58l1.37-8.39a.5.5,0,1,1,1,.16l-1.37,8.39A.5.5,0,0,1,317.56,239.73Z" fill="#231f20"></path><path d="M320.9,195.27l1.55-.23c.58.86,1.09,1.22,1.85,1.22s.8-.49.33-1.35l-2.23-4.11h1.73l2.34,4.31c.9,1.67.27,2.67-1.35,2.67A4.91,4.91,0,0,1,320.9,195.27Z" fill="#d1d3d4"></path><path d="M332.77,196.59h-3.26l.13,1h-1.8l-.65-6.8h1.6l6.73,6.8h-1.78Zm-1.4-1.47L329,192.64h0l.32,2.48Z" fill="#d1d3d4"></path><path d="M330.63,190.8h1.9l4.62,4.74h0l-.52-4.74h1.89l.6,6.8h-1.73Z" fill="#d1d3d4"></path><path d="M346,196.59H342.7l.13,1H341l-.65-6.8H342l6.73,6.8h-1.79Zm-1.4-1.47-2.36-2.48h0l.32,2.48Z" fill="#d1d3d4"></path><path d="M65.33,167.1A.51.51,0,0,1,65,167a.49.49,0,0,1-.06-.7,8.15,8.15,0,0,0,1.44-6.88,15.49,15.49,0,0,0-1.52-3.53,26.47,26.47,0,0,1-1.16-2.39,14,14,0,0,1,1-12.2.5.5,0,0,1,.84.54,13.16,13.16,0,0,0-.94,11.29,23.1,23.1,0,0,0,1.12,2.29,16.25,16.25,0,0,1,1.6,3.76,9.19,9.19,0,0,1-1.64,7.76A.5.5,0,0,1,65.33,167.1Z" fill="#d1d3d4"></path><path d="M53.8,169a.44.44,0,0,1-.22-.05.5.5,0,0,1-.23-.67c1.78-3.59,3.49-8.63,1.51-12.28a12.3,12.3,0,0,0-1.65-2.22,8.41,8.41,0,0,1-2.36-4.16c-.39-2.4.85-4.62,2-6.51a.5.5,0,1,1,.85.53c-1.1,1.74-2.24,3.76-1.91,5.82A7.65,7.65,0,0,0,54,153.13a13.84,13.84,0,0,1,1.77,2.39c2.18,4,.39,9.4-1.49,13.2A.49.49,0,0,1,53.8,169Z" fill="#d1d3d4"></path><path d="M75.72,168a.5.5,0,0,1-.31-.9c1.37-1,1.38-3.78.71-5.84-.22-.67-.5-1.33-.76-2a14.33,14.33,0,0,1-1.31-4.71,7,7,0,0,1,2.39-5.76.5.5,0,0,1,.7.08.5.5,0,0,1-.08.7,6.09,6.09,0,0,0-2,4.93,13.15,13.15,0,0,0,1.24,4.38c.27.66.55,1.35.78,2.05.78,2.37.78,5.56-1,6.95A.49.49,0,0,1,75.72,168Z" fill="#d1d3d4"></path><path d="M91.2,242.62H309.71a0,0,0,0,1,0,0v4.92a4.62,4.62,0,0,1-4.62,4.62H95.82a4.62,4.62,0,0,1-4.62-4.62v-4.92A0,0,0,0,1,91.2,242.62Z"></path><path d="M306,246.72h-211a3.73,3.73,0,0,1-3.53-4.93l19-56A12.27,12.27,0,0,1,122,177.49h157a12.27,12.27,0,0,1,11.62,8.33l19,56A3.73,3.73,0,0,1,306,246.72Z" fill="#fff"></path><path d="M306,247.18h-211a4.19,4.19,0,0,1-4-5.54l19-56A12.72,12.72,0,0,1,122,177h157A12.73,12.73,0,0,1,291,185.68l19,56a4.19,4.19,0,0,1-4,5.54ZM122,178a11.81,11.81,0,0,0-11.19,8l-19,56a3.28,3.28,0,0,0,3.11,4.33H306a3.29,3.29,0,0,0,3.11-4.33l-19-56a11.82,11.82,0,0,0-11.19-8Z" fill="#231f20"></path><path d="M287.53,213.89H113.37a.51.51,0,0,1-.4-.2.53.53,0,0,1-.08-.44l8.36-28.14a.51.51,0,0,1,.48-.36H279.17a.5.5,0,0,1,.48.36L288,213.25a.47.47,0,0,1-.08.44A.48.48,0,0,1,287.53,213.89Zm-173.49-1H286.86l-8.06-27.14H122.11Z" fill="#d1d3d4"></path><path d="M233,239.18H167.92a.51.51,0,0,1-.39-.19.53.53,0,0,1-.1-.42L171.74,219a.5.5,0,0,1,.49-.4h56.45a.5.5,0,0,1,.49.4l4.3,19.56a.51.51,0,0,1-.49.61Zm-64.44-1h63.82l-4.08-18.57H172.63Z" fill="#d1d3d4"></path><rect x="113.03" y="47.85" width="174.7" height="129.64" rx="6.48" fill="#fff"></rect><path d="M281.24,178H119.51a7,7,0,0,1-6.94-6.94V54.33a7,7,0,0,1,6.94-6.94H281.24a6.94,6.94,0,0,1,6.94,6.94V171A7,7,0,0,1,281.24,178ZM119.51,48.3a6,6,0,0,0-6,6V171a6,6,0,0,0,6,6H281.24a6,6,0,0,0,6-6V54.33a6,6,0,0,0-6-6Z" fill="#231f20"></path><rect x="119.29" y="54.86" width="161.8" height="115.44"></rect><rect x="119.29" y="54.86" width="51.19" height="115.44" fill="#d1d3d4"></rect><path d="M195.11,91.91h-8.8a.51.51,0,0,1-.5-.5.5.5,0,0,1,.5-.5h8.8a.5.5,0,0,1,.5.5A.5.5,0,0,1,195.11,91.91Z" fill="#fff"></path><path d="M217.29,91.91H199.74a.51.51,0,0,1-.5-.5.5.5,0,0,1,.5-.5h17.55a.5.5,0,0,1,.5.5A.5.5,0,0,1,217.29,91.91Z" fill="#68e1fd"></path><path d="M222.58,98.07H205a.5.5,0,0,1,0-1h17.55a.5.5,0,0,1,0,1Z" fill="#68e1fd"></path><path d="M197.18,98.07h-8.8a.5.5,0,0,1,0-1h8.8a.5.5,0,0,1,0,1Z" fill="#fff"></path><path d="M197.51,104.23h-7.07a.5.5,0,0,1,0-1h7.07a.5.5,0,0,1,0,1Z" fill="#fff"></path><path d="M225.72,104.23h-22a.5.5,0,0,1,0-1h22a.5.5,0,0,1,0,1Z" fill="#68e1fd"></path><path d="M201.31,110.39h-8.8a.5.5,0,0,1-.5-.5.5.5,0,0,1,.5-.5h8.8a.51.51,0,0,1,.5.5A.5.5,0,0,1,201.31,110.39Z" fill="#fff"></path><path d="M230.26,110.39H204.14a.5.5,0,0,1-.5-.5.5.5,0,0,1,.5-.5h26.12a.5.5,0,0,1,.5.5A.5.5,0,0,1,230.26,110.39Z" fill="#68e1fd"></path><path d="M199,116.55h-8.79a.5.5,0,0,1-.5-.5.5.5,0,0,1,.5-.5H199a.5.5,0,0,1,.5.5A.5.5,0,0,1,199,116.55Z" fill="#fff"></path><path d="M216.51,116.55H202.34a.5.5,0,0,1-.5-.5.51.51,0,0,1,.5-.5h14.17a.51.51,0,0,1,.5.5A.5.5,0,0,1,216.51,116.55Z" fill="#68e1fd"></path><path d="M236.08,116.55H221.92a.5.5,0,0,1-.5-.5.5.5,0,0,1,.5-.5h14.16a.5.5,0,0,1,.5.5A.5.5,0,0,1,236.08,116.55Z" fill="#68e1fd"></path><path d="M193.21,122.71h-3a.5.5,0,0,1-.5-.5.5.5,0,0,1,.5-.5h3a.51.51,0,0,1,.5.5A.5.5,0,0,1,193.21,122.71Z" fill="#fff"></path><path d="M216.51,122.71H198.37a.5.5,0,0,1-.5-.5.51.51,0,0,1,.5-.5h18.14a.51.51,0,0,1,.5.5A.5.5,0,0,1,216.51,122.71Z" fill="#68e1fd"></path><path d="M223.65,122.71h-5.06a.5.5,0,0,1-.5-.5.51.51,0,0,1,.5-.5h5.06a.5.5,0,0,1,.5.5A.5.5,0,0,1,223.65,122.71Z" fill="#68e1fd"></path><path d="M194.94,128.88h-4.76a.5.5,0,0,1-.5-.5.5.5,0,0,1,.5-.5h4.76a.5.5,0,0,1,.5.5A.51.51,0,0,1,194.94,128.88Z" fill="#fff"></path><path d="M221,128.88H199.42a.5.5,0,0,1-.5-.5.5.5,0,0,1,.5-.5H221a.5.5,0,0,1,.5.5A.51.51,0,0,1,221,128.88Z" fill="#68e1fd"></path><path d="M231.87,128.88h-8.8a.51.51,0,0,1-.5-.5.5.5,0,0,1,.5-.5h8.8a.5.5,0,0,1,.5.5A.5.5,0,0,1,231.87,128.88Z" fill="#68e1fd"></path><path d="M192.78,135h-4.67a.5.5,0,0,1-.5-.5.5.5,0,0,1,.5-.5h4.67a.5.5,0,0,1,.5.5A.51.51,0,0,1,192.78,135Z" fill="#fff"></path><path d="M218.59,135H198.21a.51.51,0,0,1-.5-.5.5.5,0,0,1,.5-.5h20.38a.5.5,0,0,1,.5.5A.5.5,0,0,1,218.59,135Z" fill="#68e1fd"></path><path d="M196.91,141.2h-8.8a.5.5,0,0,1-.5-.5.5.5,0,0,1,.5-.5h8.8a.5.5,0,0,1,.5.5A.51.51,0,0,1,196.91,141.2Z" fill="#fff"></path><path d="M207,147.36H189.41a.51.51,0,0,1-.5-.5.5.5,0,0,1,.5-.5H207a.5.5,0,0,1,.5.5A.5.5,0,0,1,207,147.36Z" fill="#fff"></path><path d="M223.65,147.36h-12.2a.5.5,0,0,1-.5-.5.5.5,0,0,1,.5-.5h12.2a.5.5,0,0,1,.5.5A.5.5,0,0,1,223.65,147.36Z" fill="#68e1fd"></path><path d="M240.5,147.36H225.4a.5.5,0,0,1-.5-.5.5.5,0,0,1,.5-.5h15.1a.5.5,0,0,1,.5.5A.5.5,0,0,1,240.5,147.36Z" fill="#68e1fd"></path><path d="M215.76,153.52H190.18a.5.5,0,0,1,0-1h25.58a.5.5,0,0,1,0,1Z" fill="#fff"></path><path d="M230.59,153.52H219.08a.5.5,0,0,1,0-1h11.51a.5.5,0,0,1,0,1Z" fill="#68e1fd"></path><path d="M266.77,153.52h-27a.5.5,0,0,1,0-1h27a.5.5,0,0,1,0,1Z" fill="#68e1fd"></path><path d="M245.71,110.39h-11.9a.5.5,0,0,1-.5-.5.51.51,0,0,1,.5-.5h11.9a.51.51,0,0,1,.5.5A.5.5,0,0,1,245.71,110.39Z" fill="#68e1fd"></path><path d="M254.52,110.46c-4.12,0-4.25-.08-4.35-.13a.5.5,0,0,1-.19-.68.48.48,0,0,1,.56-.24c.7.08,8.37,0,13.41,0h0a.5.5,0,0,1,0,1C259.54,110.44,256.55,110.46,254.52,110.46Z" fill="#68e1fd"></path><path d="M243.81,98.07H226.54a.5.5,0,0,1,0-1h17.27a.5.5,0,0,1,0,1Z" fill="#68e1fd"></path><path d="M264.45,98.07H247.27a.5.5,0,0,1,0-1h17.18a.5.5,0,0,1,0,1Z" fill="#68e1fd"></path><path d="M227.92,91.94c-6,0-6.08,0-6.14,0a.5.5,0,0,1-.34-.62.5.5,0,0,1,.55-.36c.66,0,12.19,0,19.83,0h0a.5.5,0,0,1,0,1Z" fill="#68e1fd"></path><path d="M246.53,91.91a.49.49,0,0,1-.38-.18.51.51,0,0,1,.06-.71c.18-.14.39-.32,12.14-.11a.5.5,0,0,1,0,1c-4.13-.08-10.89-.15-11.62,0A.57.57,0,0,1,246.53,91.91Z" fill="#fff"></path><path d="M229.85,135H221a.5.5,0,0,1-.5-.5.5.5,0,0,1,.5-.5h8.9a.5.5,0,0,1,.5.5A.51.51,0,0,1,229.85,135Z" fill="#68e1fd"></path><path d="M209.42,141.2h-6.54a.5.5,0,0,1-.5-.5.5.5,0,0,1,.5-.5h6.54a.5.5,0,0,1,.5.5A.5.5,0,0,1,209.42,141.2Z" fill="#68e1fd"></path><path d="M227.47,141.2H211.91a.51.51,0,0,1-.5-.5.5.5,0,0,1,.5-.5h15.56a.5.5,0,0,1,.5.5A.5.5,0,0,1,227.47,141.2Z" fill="#fff"></path><path d="M260.74,141.2H230.59a.5.5,0,0,1-.5-.5.5.5,0,0,1,.5-.5h30.15a.5.5,0,0,1,.5.5A.51.51,0,0,1,260.74,141.2Z" fill="#68e1fd"></path><path d="M195.21,74.77h-8.8a.5.5,0,0,1-.5-.5.5.5,0,0,1,.5-.5h8.8a.5.5,0,0,1,.5.5A.51.51,0,0,1,195.21,74.77Z" fill="#fff"></path><path d="M205.26,80.93H187.71a.5.5,0,0,1-.5-.5.5.5,0,0,1,.5-.5h17.55a.5.5,0,0,1,.5.5A.5.5,0,0,1,205.26,80.93Z" fill="#fff"></path><path d="M222,80.93h-12.2a.5.5,0,0,1-.5-.5.5.5,0,0,1,.5-.5H222a.5.5,0,0,1,.5.5A.5.5,0,0,1,222,80.93Z" fill="#68e1fd"></path><path d="M238.8,80.93H223.7a.5.5,0,0,1-.5-.5.5.5,0,0,1,.5-.5h15.1a.5.5,0,0,1,.5.5A.5.5,0,0,1,238.8,80.93Z" fill="#68e1fd"></path><path d="M214.06,87.09H188.48a.5.5,0,0,1,0-1h25.58a.5.5,0,0,1,0,1Z" fill="#fff"></path><path d="M228.89,87.09H217.38a.5.5,0,0,1,0-1h11.51a.5.5,0,0,1,0,1Z" fill="#68e1fd"></path><path d="M265.07,87.09h-27a.5.5,0,0,1,0-1h27a.5.5,0,0,1,0,1Z" fill="#68e1fd"></path><path d="M207.72,74.77h-6.54a.5.5,0,0,1-.5-.5.5.5,0,0,1,.5-.5h6.54a.5.5,0,0,1,.5.5A.5.5,0,0,1,207.72,74.77Z" fill="#68e1fd"></path><path d="M225.77,74.77H210.21a.51.51,0,0,1-.5-.5.5.5,0,0,1,.5-.5h15.56a.5.5,0,0,1,.5.5A.5.5,0,0,1,225.77,74.77Z" fill="#fff"></path><path d="M259,74.77H228.89a.5.5,0,0,1-.5-.5.5.5,0,0,1,.5-.5H259a.5.5,0,0,1,.5.5A.51.51,0,0,1,259,74.77Z" fill="#68e1fd"></path><path d="M200.53,160.35H188.74a.5.5,0,0,1-.5-.5.51.51,0,0,1,.5-.5h11.79a.5.5,0,0,1,.5.5A.5.5,0,0,1,200.53,160.35Z" fill="#68e1fd"></path><path d="M208.52,160.35H205a.5.5,0,0,1-.5-.5.5.5,0,0,1,.5-.5h3.49a.51.51,0,0,1,.5.5A.5.5,0,0,1,208.52,160.35Z" fill="#68e1fd"></path><path d="M191.69,165.44h-5.38a.5.5,0,0,1,0-1h5.38a.5.5,0,0,1,0,1Z" fill="#68e1fd"></path><rect x="178.7" y="73.3" width="1.51" height="1.51" fill="#d1d3d4"></rect><rect x="178.7" y="79.36" width="1.51" height="1.51" fill="#d1d3d4"></rect><rect x="178.7" y="85.42" width="1.51" height="1.51" fill="#d1d3d4"></rect><rect x="178.7" y="91.48" width="1.51" height="1.51" fill="#d1d3d4"></rect><rect x="178.7" y="97.54" width="1.51" height="1.51" fill="#d1d3d4"></rect><rect x="178.7" y="103.6" width="1.51" height="1.51" fill="#d1d3d4"></rect><rect x="178.7" y="109.67" width="1.51" height="1.51" fill="#d1d3d4"></rect><rect x="178.7" y="115.73" width="1.51" height="1.51" fill="#d1d3d4"></rect><rect x="178.7" y="121.79" width="1.51" height="1.51" fill="#d1d3d4"></rect><rect x="178.7" y="127.85" width="1.51" height="1.51" fill="#d1d3d4"></rect><rect x="178.7" y="133.91" width="1.51" height="1.51" fill="#d1d3d4"></rect><rect x="178.7" y="139.97" width="1.51" height="1.51" fill="#d1d3d4"></rect><rect x="178.7" y="146.03" width="1.51" height="1.51" fill="#d1d3d4"></rect><rect x="178.7" y="152.09" width="1.51" height="1.51" fill="#d1d3d4"></rect><rect x="178.7" y="158.18" width="1.51" height="1.51" fill="#d1d3d4"></rect><rect x="178.7" y="164.27" width="1.51" height="1.51" fill="#d1d3d4"></rect><path d="M137.1,83.76H133a.5.5,0,0,1-.5-.5.5.5,0,0,1,.5-.5h4.09a.5.5,0,0,1,.5.5A.5.5,0,0,1,137.1,83.76Z" fill="#fff"></path><path d="M147.43,83.76h-8.17a.5.5,0,0,1-.5-.5.5.5,0,0,1,.5-.5h8.17a.5.5,0,0,1,.5.5A.5.5,0,0,1,147.43,83.76Z"></path><path d="M149.89,87.8h-8.17a.5.5,0,0,1-.5-.5.5.5,0,0,1,.5-.5h8.17a.5.5,0,0,1,.5.5A.51.51,0,0,1,149.89,87.8Z"></path><path d="M138.06,87.8H134a.5.5,0,0,1-.5-.5.5.5,0,0,1,.5-.5h4.09a.5.5,0,0,1,.5.5A.5.5,0,0,1,138.06,87.8Z" fill="#fff"></path><path d="M138.22,91.83h-3.29a.5.5,0,0,1-.5-.5.5.5,0,0,1,.5-.5h3.29a.5.5,0,0,1,.5.5A.5.5,0,0,1,138.22,91.83Z" fill="#fff"></path><path d="M151.35,91.83H141.12a.51.51,0,0,1-.5-.5.5.5,0,0,1,.5-.5h10.23a.5.5,0,0,1,.5.5A.5.5,0,0,1,151.35,91.83Z"></path><path d="M142.1,95.86h-5.34a.5.5,0,0,1,0-1h5.34a.5.5,0,0,1,0,1Z" fill="#fff"></path><path d="M159.66,95.86H143.82a.5.5,0,0,1,0-1h15.84a.5.5,0,0,1,0,1Z"></path><path d="M140.69,99.89h-5.34a.5.5,0,0,1,0-1h5.34a.5.5,0,0,1,0,1Z" fill="#fff"></path><path d="M151.32,99.89h-8.59a.5.5,0,0,1,0-1h8.59a.5.5,0,0,1,0,1Z"></path><path d="M160.83,99.89H154.6a.5.5,0,0,1,0-1h6.23a.5.5,0,0,1,0,1Z"></path><path d="M137.19,103.92h-1.84a.5.5,0,0,1-.5-.5.5.5,0,0,1,.5-.5h1.84a.51.51,0,0,1,.5.5A.5.5,0,0,1,137.19,103.92Z" fill="#fff"></path><path d="M151.32,103.92h-11a.5.5,0,0,1-.5-.5.5.5,0,0,1,.5-.5h11a.5.5,0,0,1,.5.5A.5.5,0,0,1,151.32,103.92Z"></path><path d="M155.65,103.92h-3.06a.5.5,0,0,1-.5-.5.5.5,0,0,1,.5-.5h3.06a.5.5,0,0,1,.5.5A.5.5,0,0,1,155.65,103.92Z"></path><path d="M138.24,108h-2.89a.5.5,0,0,1-.5-.5.5.5,0,0,1,.5-.5h2.89a.51.51,0,0,1,.5.5A.5.5,0,0,1,138.24,108Z" fill="#fff"></path><path d="M154,108H141a.5.5,0,0,1-.5-.5.5.5,0,0,1,.5-.5h13a.5.5,0,0,1,.5.5A.5.5,0,0,1,154,108Z"></path><path d="M160.64,108H155.3a.5.5,0,0,1-.5-.5.51.51,0,0,1,.5-.5h5.34a.5.5,0,0,1,.5.5A.5.5,0,0,1,160.64,108Z"></path><path d="M136.93,112H134.1a.5.5,0,0,1-.5-.5.5.5,0,0,1,.5-.5h2.83a.5.5,0,0,1,.5.5A.51.51,0,0,1,136.93,112Z" fill="#fff"></path><path d="M152.59,112H140.22a.51.51,0,0,1-.5-.5.5.5,0,0,1,.5-.5h12.37a.5.5,0,0,1,.5.5A.51.51,0,0,1,152.59,112Z"></path><path d="M139.43,116H134.1a.5.5,0,0,1-.5-.5.5.5,0,0,1,.5-.5h5.33a.5.5,0,0,1,.5.5A.5.5,0,0,1,139.43,116Z" fill="#fff"></path><path d="M145.53,120.05H134.89a.5.5,0,0,1,0-1h10.64a.5.5,0,0,1,0,1Z" fill="#fff"></path><path d="M155.65,120.05h-7.4a.5.5,0,0,1,0-1h7.4a.5.5,0,0,1,0,1Z"></path><path d="M161.07,120.05h-4.36a.5.5,0,0,1,0-1h4.36a.5.5,0,0,1,0,1Z"></path><path d="M150.87,124.08H135.35a.5.5,0,0,1,0-1h15.52a.5.5,0,0,1,0,1Z" fill="#fff"></path><path d="M159.86,124.08h-7a.5.5,0,0,1,0-1h7a.5.5,0,0,1,0,1Z"></path><path d="M151.89,83.79c-.78,0-1.55,0-2.32,0a.49.49,0,0,1-.49-.51.54.54,0,0,1,.51-.49c1.3,0,2.6,0,3.9,0h1.11a.5.5,0,0,1,0,1h-2.71Z"></path><path d="M159.41,112H154a.51.51,0,0,1-.5-.5.5.5,0,0,1,.5-.5h5.4a.5.5,0,0,1,.5.5A.5.5,0,0,1,159.41,112Z"></path><path d="M147,116h-4a.51.51,0,0,1-.5-.5.5.5,0,0,1,.5-.5h4a.5.5,0,0,1,.5.5A.5.5,0,0,1,147,116Z"></path><path d="M158,116h-9.44a.51.51,0,0,1-.5-.5.5.5,0,0,1,.5-.5H158a.5.5,0,0,1,.5.5A.5.5,0,0,1,158,116Z" fill="#fff"></path><path d="M137.21,64.48h-2.89a.5.5,0,0,1-.5-.5.5.5,0,0,1,.5-.5h2.89a.51.51,0,0,1,.5.5A.5.5,0,0,1,137.21,64.48Z" fill="#fff"></path><path d="M153,64.48H139.92a.5.5,0,0,1-.5-.5.51.51,0,0,1,.5-.5H153a.5.5,0,0,1,.5.5A.5.5,0,0,1,153,64.48Z"></path><path d="M159.61,64.48h-5.34a.5.5,0,0,1-.5-.5.51.51,0,0,1,.5-.5h5.34a.51.51,0,0,1,.5.5A.5.5,0,0,1,159.61,64.48Z"></path><path d="M135.9,68.52h-2.83a.5.5,0,0,1-.5-.5.5.5,0,0,1,.5-.5h2.83a.5.5,0,0,1,.5.5A.51.51,0,0,1,135.9,68.52Z" fill="#fff"></path><path d="M151.55,68.52H139.19a.51.51,0,0,1-.5-.5.5.5,0,0,1,.5-.5h12.36a.5.5,0,0,1,.5.5A.5.5,0,0,1,151.55,68.52Z"></path><path d="M138.4,72.55h-5.33a.5.5,0,0,1-.5-.5.5.5,0,0,1,.5-.5h5.33a.5.5,0,0,1,.5.5A.5.5,0,0,1,138.4,72.55Z" fill="#fff"></path><path d="M141.83,76.58h-8.17a.5.5,0,0,1,0-1h8.17a.5.5,0,0,1,0,1Z" fill="#fff"></path><path d="M149.6,76.58h-5.68a.5.5,0,0,1,0-1h5.68a.5.5,0,0,1,0,1Z"></path><path d="M154.43,76.58h-4a.5.5,0,0,1,0-1h4a.5.5,0,0,1,0,1Z"></path><path d="M145.92,80.61H134a.5.5,0,0,1,0-1h11.91a.5.5,0,0,1,0,1Z" fill="#fff"></path><path d="M152.83,80.61h-5.36a.5.5,0,0,1,0-1h5.36a.5.5,0,0,1,0,1Z"></path><path d="M158.38,68.52H153a.51.51,0,0,1-.5-.5.5.5,0,0,1,.5-.5h5.4a.5.5,0,0,1,.5.5A.5.5,0,0,1,158.38,68.52Z"></path><path d="M146,72.55h-4a.51.51,0,0,1-.5-.5.5.5,0,0,1,.5-.5h4a.5.5,0,0,1,.5.5A.5.5,0,0,1,146,72.55Z"></path><path d="M156.94,72.55H147.5a.51.51,0,0,1-.5-.5.5.5,0,0,1,.5-.5h9.44a.5.5,0,0,1,.5.5A.5.5,0,0,1,156.94,72.55Z" fill="#fff"></path><rect x="125.63" y="63.48" width="0.75" height="0.99"></rect><rect x="125.63" y="67.45" width="0.75" height="0.99"></rect><rect x="125.63" y="71.42" width="0.75" height="0.99"></rect><rect x="125.63" y="75.38" width="0.75" height="0.99"></rect><rect x="125.63" y="79.35" width="0.75" height="0.99"></rect><rect x="125.63" y="83.31" width="0.75" height="0.99"></rect><rect x="125.63" y="87.28" width="0.75" height="0.99"></rect><rect x="125.63" y="91.24" width="0.75" height="0.99"></rect><rect x="125.63" y="95.21" width="0.75" height="0.99"></rect><rect x="125.63" y="99.18" width="0.75" height="0.99"></rect><rect x="125.63" y="103.14" width="0.75" height="0.99"></rect><rect x="125.63" y="107.11" width="0.75" height="0.99"></rect><rect x="125.63" y="111.07" width="0.75" height="0.99"></rect><rect x="125.63" y="115.04" width="0.75" height="0.99"></rect><rect x="125.63" y="119.01" width="0.75" height="0.99"></rect><rect x="125.63" y="122.97" width="0.75" height="0.99"></rect><path d="M137.69,147.87H133a.5.5,0,0,1-.5-.5.5.5,0,0,1,.5-.5h4.68a.5.5,0,0,1,.5.5A.5.5,0,0,1,137.69,147.87Z" fill="#fff"></path><path d="M149.51,147.87h-9.35a.5.5,0,0,1-.5-.5.5.5,0,0,1,.5-.5h9.35a.5.5,0,0,1,.5.5A.5.5,0,0,1,149.51,147.87Z"></path><path d="M152.32,151.9H143a.5.5,0,0,1,0-1h9.35a.5.5,0,0,1,0,1Z"></path><path d="M138.79,151.9h-4.68a.5.5,0,0,1,0-1h4.68a.5.5,0,0,1,0,1Z" fill="#fff"></path><path d="M139,155.93h-3.76a.5.5,0,1,1,0-1H139a.5.5,0,0,1,0,1Z" fill="#fff"></path><path d="M154,155.93H142.29a.5.5,0,0,1,0-1H154a.5.5,0,0,1,0,1Z"></path><path d="M141,160h-4.68a.5.5,0,0,1-.5-.5.5.5,0,0,1,.5-.5H141a.5.5,0,0,1,.5.5A.5.5,0,0,1,141,160Z" fill="#fff"></path><path d="M156.42,160H142.5a.5.5,0,0,1-.5-.5.51.51,0,0,1,.5-.5h13.92a.51.51,0,0,1,.5.5A.5.5,0,0,1,156.42,160Z"></path><path d="M139.75,164h-4.69a.5.5,0,0,1-.5-.5.51.51,0,0,1,.5-.5h4.69a.5.5,0,0,1,.5.5A.5.5,0,0,1,139.75,164Z" fill="#fff"></path><path d="M149.09,164h-7.55a.5.5,0,0,1-.5-.5.51.51,0,0,1,.5-.5h7.55a.5.5,0,0,1,.5.5A.5.5,0,0,1,149.09,164Z"></path><path d="M157.44,164H152a.5.5,0,0,1-.5-.5.51.51,0,0,1,.5-.5h5.47a.5.5,0,0,1,.5.5A.5.5,0,0,1,157.44,164Z"></path><path d="M154.6,147.89c-.88,0-1.76,0-2.64,0a.51.51,0,0,1-.49-.52.48.48,0,0,1,.51-.48c1.48,0,3,0,4.46,0h1.28a.51.51,0,0,1,.5.5.5.5,0,0,1-.5.5H154.6Z"></path><path d="M136.69,128.59h-2.53a.5.5,0,0,1-.5-.5.5.5,0,0,1,.5-.5h2.53a.5.5,0,0,1,.5.5A.5.5,0,0,1,136.69,128.59Z" fill="#fff"></path><path d="M150.55,128.59H139.08a.51.51,0,0,1-.5-.5.5.5,0,0,1,.5-.5h11.47a.5.5,0,0,1,.5.5A.5.5,0,0,1,150.55,128.59Z"></path><path d="M156.37,128.59h-4.69a.51.51,0,0,1-.5-.5.5.5,0,0,1,.5-.5h4.69a.5.5,0,0,1,.5.5A.51.51,0,0,1,156.37,128.59Z"></path><path d="M135.54,132.62h-2.48a.5.5,0,0,1,0-1h2.48a.5.5,0,0,1,0,1Z" fill="#fff"></path><path d="M149.29,132.62H138.44a.5.5,0,0,1,0-1h10.85a.5.5,0,0,1,0,1Z"></path><path d="M137.74,136.65h-4.68a.5.5,0,0,1,0-1h4.68a.5.5,0,0,1,0,1Z" fill="#fff"></path><path d="M143.1,140.68h-9.35a.5.5,0,0,1-.5-.5.51.51,0,0,1,.5-.5h9.35a.5.5,0,0,1,.5.5A.5.5,0,0,1,143.1,140.68Z" fill="#fff"></path><path d="M152,140.68h-6.5a.5.5,0,0,1-.5-.5.5.5,0,0,1,.5-.5H152a.5.5,0,0,1,.5.5A.5.5,0,0,1,152,140.68Z"></path><path d="M157.52,140.68h-4.6a.5.5,0,0,1-.5-.5.5.5,0,0,1,.5-.5h4.6a.5.5,0,0,1,.5.5A.5.5,0,0,1,157.52,140.68Z"></path><path d="M147.79,144.71H134.16a.5.5,0,0,1-.5-.5.5.5,0,0,1,.5-.5h13.63a.51.51,0,0,1,.5.5A.5.5,0,0,1,147.79,144.71Z" fill="#fff"></path><path d="M155.69,144.71h-6.14a.5.5,0,0,1-.5-.5.51.51,0,0,1,.5-.5h6.14a.51.51,0,0,1,.5.5A.5.5,0,0,1,155.69,144.71Z"></path><path d="M155.29,132.62h-4.74a.5.5,0,0,1,0-1h4.74a.5.5,0,0,1,0,1Z"></path><path d="M144.41,136.65h-3.49a.5.5,0,0,1,0-1h3.49a.5.5,0,0,1,0,1Z"></path><path d="M154,136.65h-8.28a.5.5,0,0,1,0-1H154a.5.5,0,0,1,0,1Z" fill="#fff"></path><rect x="125.63" y="127.59" width="0.75" height="0.99"></rect><rect x="125.63" y="131.55" width="0.75" height="0.99"></rect><rect x="125.63" y="135.52" width="0.75" height="0.99"></rect><rect x="125.63" y="139.48" width="0.75" height="0.99"></rect><rect x="125.63" y="143.45" width="0.75" height="0.99"></rect><rect x="125.63" y="147.42" width="0.75" height="0.99"></rect><rect x="125.63" y="151.38" width="0.75" height="0.99"></rect><rect x="125.63" y="155.35" width="0.75" height="0.99"></rect><rect x="125.63" y="159.31" width="0.75" height="0.99"></rect><rect x="125.63" y="163.28" width="0.75" height="0.99"></rect><path d="M180.09,64.12V63l4.3-2.56.84,1.35-3.07,1.76,3.07,1.76-.84,1.36Z" fill="#68e1fd"></path><path d="M184.75,68.15h1c.41,0,.59-.18.59-.56v-6h1.91v6c0,1.63-.69,2.29-2.33,2.29h-1.14Zm1.56-9.25h1.91v1.79h-1.91Z" fill="#68e1fd"></path><path d="M189,65.8c0-1.07.77-1.63,2.64-1.89,1.1-.15,1.42-.31,1.42-.59s-.38-.53-.94-.53a1.3,1.3,0,0,0-1.39,1L189,63.47A2.88,2.88,0,0,1,192,61.38c1.81,0,2.94.93,2.94,2.42v3.65h-1.73v-.59h0a2.6,2.6,0,0,1-2,.76C189.84,67.62,189,66.91,189,65.8Zm4.16-.57v-.59h0c-.12.18-.39.29-1.1.43-.89.18-1.18.34-1.18.63s.26.45.81.45C192.45,66.15,193.13,65.73,193.13,65.23Z" fill="#68e1fd"></path><path d="M194.85,61.59H197l1.62,3.68h0l1.64-3.68h2.14l-2.87,5.86h-1.84Z" fill="#68e1fd"></path><path d="M202.34,65.8c0-1.07.77-1.63,2.64-1.89,1.09-.15,1.41-.31,1.41-.59s-.37-.53-.94-.53a1.29,1.29,0,0,0-1.38,1l-1.74-.31a2.88,2.88,0,0,1,3.07-2.09c1.81,0,2.94.93,2.94,2.42v3.65H206.6v-.59h0a2.61,2.61,0,0,1-2,.76C203.21,67.62,202.34,66.91,202.34,65.8Zm4.15-.57v-.59h0c-.12.18-.4.29-1.1.43-.89.18-1.19.34-1.19.63s.27.45.82.45C205.82,66.15,206.49,65.73,206.49,65.23Z" fill="#68e1fd"></path><path d="M209.24,65.34l3.07-1.76-3.07-1.76.84-1.35,4.3,2.56v1.09l-4.3,2.58Z" fill="#68e1fd"></path><path d="M82.06,207.35a19,19,0,0,1-3.72-.35.46.46,0,0,1-.36-.54.47.47,0,0,1,.55-.36c.06,0,6.86,1.42,10.89-1.81,2-1.57,3-4,3-7.25a3.3,3.3,0,0,0-1.25-3c-2.18-1.37-6.51.71-6.55.73a.46.46,0,0,1-.4-.82c.19-.09,4.83-2.32,7.44-.68,1.12.7,1.68,2,1.67,3.82,0,3.52-1.14,6.2-3.32,7.95A12.72,12.72,0,0,1,82.06,207.35Z" fill="#231f20"></path><ellipse cx="63.88" cy="218.59" rx="30.01" ry="8.44" fill="#fff"></ellipse><path d="M63.88,227.53c-17.11,0-30.51-3.93-30.51-8.94s13.4-8.94,30.51-8.94,30.52,3.92,30.52,8.94S81,227.53,63.88,227.53Zm0-16.88c-17.65,0-29.51,4.1-29.51,7.94s11.86,7.94,29.51,7.94,29.52-4.11,29.52-7.94S81.54,210.65,63.88,210.65Z" fill="#231f20"></path><ellipse cx="63.88" cy="217.82" rx="12.73" ry="2.64" fill="#d1d3d4"></ellipse><path d="M88,185c0,4.31-2.35,33.8-24.12,33.8S39.77,189.33,39.77,185s10.8-7.82,24.11-7.82S88,180.7,88,185Z" fill="#fff"></path><path d="M63.88,219.27c-9.24,0-16.38-5.38-20.64-15.56A55.57,55.57,0,0,1,39.31,185c0-4.65,10.8-8.28,24.57-8.28s24.58,3.63,24.58,8.28a55.57,55.57,0,0,1-3.93,18.69C80.27,213.89,73.13,219.27,63.88,219.27Zm0-41.62c-12.82,0-23.65,3.37-23.65,7.37,0,.33,1,33.34,23.65,33.34s23.66-33,23.66-33.34C87.54,181,76.71,177.65,63.88,177.65Z" fill="#231f20"></path><ellipse cx="63.88" cy="185.02" rx="24.11" ry="7.82" fill="#231f20"></ellipse><path d="M63.88,193.34c-13.8,0-24.61-3.66-24.61-8.32s10.81-8.32,24.61-8.32S88.5,180.35,88.5,185,77.69,193.34,63.88,193.34Zm0-15.64c-14.12,0-23.61,3.78-23.61,7.32s9.49,7.32,23.61,7.32S87.5,188.55,87.5,185,78,177.7,63.88,177.7Z" fill="#231f20"></path></g></svg>