<svg xmlns="http://www.w3.org/2000/svg" viewBox="0 0 400 300" width="0" height="0" class="illustration styles_illustrationTablet__1DWOa"><g id="_184_code_python_flatline" data-name="#184_code_python_flatline"><path d="M333.49,215.4c-6.22,6.45-17.72,5.93-29.14,3.06a128,128,0,0,1-16.52-5.53,169.8,169.8,0,0,1-16.28-7.64l7.32-28.72a114.6,114.6,0,0,0,9.85,8.33C295.49,190,304.86,196,313.94,198c1,.22,1.93.39,2.89.51,17.79,2.24,7.54-28.73,0-33.8s12.72-3.38,18.92,6.2S348.7,199.63,333.49,215.4Z" fill="#68e1fd"></path><path d="M313.94,198l-9.59,20.43a128,128,0,0,1-16.52-5.53l.89-28C295.49,190,304.86,196,313.94,198Z"></path><path d="M57.27,172.93a.45.45,0,0,1-.46-.43.45.45,0,0,1,.43-.48c9.36-.54,11.68-12.46,11.7-12.58a.48.48,0,0,1,.54-.37.46.46,0,0,1,.36.54c0,.12-2.47,12.74-12.55,13.32Z" fill="#231f20"></path><path d="M94.63,89.81H286.84a14.38,14.38,0,0,1,14.38,14.38V221.57a0,0,0,0,1,0,0h-221a0,0,0,0,1,0,0V104.19A14.38,14.38,0,0,1,94.63,89.81Z" fill="#fff"></path><path d="M301.22,222h-221a.45.45,0,0,1-.45-.46V104.19A14.85,14.85,0,0,1,94.63,89.35H286.84a14.86,14.86,0,0,1,14.84,14.84V221.57A.46.46,0,0,1,301.22,222ZM80.7,221.12H300.77V104.19a14,14,0,0,0-13.93-13.93H94.63A14,14,0,0,0,80.7,104.19Z" fill="#231f20"></path><path d="M224.81,222.14a.5.5,0,0,1-.5-.5v-120a.5.5,0,0,1,.5-.5.5.5,0,0,1,.5.5v120A.5.5,0,0,1,224.81,222.14Z" fill="#d1d3d4"></path><path d="M287.41,222.07H94.06a.5.5,0,0,1-.5-.5v-120a.5.5,0,0,1,.5-.5H287.41a.5.5,0,0,1,.5.5v120A.5.5,0,0,1,287.41,222.07Zm-192.85-1H286.91v-119H94.56Z" fill="#d1d3d4"></path><path d="M319.65,222.09H61.82a.52.52,0,0,1,0-1H319.65a.52.52,0,0,1,0,1Z" fill="#231f20"></path><path d="M57.27,221.57H324.2a0,0,0,0,1,0,0v0a16,16,0,0,1-16,16h-235a16,16,0,0,1-16-16v0a0,0,0,0,1,0,0Z" fill="#fff"></path><path d="M308.23,238h-235a16.45,16.45,0,0,1-16.43-16.43.45.45,0,0,1,.46-.45H324.2a.46.46,0,0,1,.46.45A16.45,16.45,0,0,1,308.23,238ZM57.73,222a15.54,15.54,0,0,0,15.51,15.06h235A15.54,15.54,0,0,0,323.74,222Z" fill="#231f20"></path><rect x="169.09" y="221.57" width="43.29" height="3.99"></rect><path d="M287.41,171h-62.6a.5.5,0,0,1-.5-.5.51.51,0,0,1,.5-.5h62.6a.51.51,0,0,1,.5.5A.5.5,0,0,1,287.41,171Z" fill="#d1d3d4"></path><path d="M224.81,194.09H95.86a.5.5,0,0,1-.5-.5.5.5,0,0,1,.5-.5h129a.5.5,0,0,1,.5.5A.5.5,0,0,1,224.81,194.09Z" fill="#d1d3d4"></path><path d="M281.13,107.89H234.39a.46.46,0,1,1,0-.91h46.74a.46.46,0,0,1,0,.91Z" fill="#231f20"></path><path d="M272.68,114.16H234.39a.5.5,0,0,1-.5-.5.5.5,0,0,1,.5-.5h38.29a.5.5,0,0,1,.5.5A.5.5,0,0,1,272.68,114.16Z" fill="#d1d3d4"></path><path d="M281.13,120.35H234.39a.46.46,0,1,1,0-.91h46.74a.46.46,0,0,1,0,.91Z" fill="#231f20"></path><path d="M277.18,126.62H234.39a.5.5,0,0,1,0-1h42.79a.5.5,0,0,1,0,1Z" fill="#d1d3d4"></path><path d="M281.13,132.85H234.39a.5.5,0,0,1,0-1h46.74a.5.5,0,0,1,0,1Z" fill="#d1d3d4"></path><path d="M267.61,139H234.39a.46.46,0,1,1,0-.92h33.22a.46.46,0,0,1,0,.92Z" fill="#231f20"></path><path d="M281.13,145.31H234.39a.5.5,0,0,1-.5-.5.5.5,0,0,1,.5-.5h46.74a.5.5,0,0,1,.5.5A.51.51,0,0,1,281.13,145.31Z" fill="#d1d3d4"></path><path d="M271.55,151.49H234.39a.46.46,0,1,1,0-.91h37.16a.46.46,0,1,1,0,.91Z" fill="#231f20"></path><path d="M265.92,157.76H234.39a.5.5,0,0,1-.5-.5.5.5,0,0,1,.5-.5h31.53a.5.5,0,0,1,.5.5A.5.5,0,0,1,265.92,157.76Z" fill="#d1d3d4"></path><path d="M271.55,164H234.39a.5.5,0,0,1-.5-.5.5.5,0,0,1,.5-.5h37.16a.5.5,0,0,1,.5.5A.5.5,0,0,1,271.55,164Z" fill="#d1d3d4"></path><path d="M121.9,114.13H111.22a.5.5,0,0,1-.5-.5.51.51,0,0,1,.5-.5H121.9a.5.5,0,0,1,.5.5A.5.5,0,0,1,121.9,114.13Z" fill="#d1d3d4"></path><path d="M148.82,114.09h-21.3a.46.46,0,1,1,0-.91h21.3a.46.46,0,1,1,0,.91Z" fill="#231f20"></path><path d="M155.24,120.25H133.93a.46.46,0,0,1,0-.91h21.31a.46.46,0,0,1,0,.91Z" fill="#231f20"></path><path d="M124.41,120.29H113.73a.5.5,0,0,1-.5-.5.5.5,0,0,1,.5-.5h10.68a.51.51,0,0,1,.5.5A.5.5,0,0,1,124.41,120.29Z" fill="#d1d3d4"></path><path d="M124.81,126.46h-8.57a.5.5,0,0,1-.5-.5.5.5,0,0,1,.5-.5h8.57a.5.5,0,0,1,.5.5A.5.5,0,0,1,124.81,126.46Z" fill="#d1d3d4"></path><path d="M159.05,126.41H132.38a.46.46,0,1,1,0-.91h26.67a.46.46,0,0,1,0,.91Z" fill="#231f20"></path><path d="M129.42,132.62H118.74a.5.5,0,0,1-.5-.5.5.5,0,0,1,.5-.5h10.68a.5.5,0,0,1,.5.5A.51.51,0,0,1,129.42,132.62Z" fill="#d1d3d4"></path><path d="M164.56,132.57h-31.7a.46.46,0,1,1,0-.91h31.7a.46.46,0,1,1,0,.91Z" fill="#231f20"></path><path d="M126.59,138.78H115.91a.5.5,0,0,1-.5-.5.5.5,0,0,1,.5-.5h10.68a.5.5,0,0,1,.5.5A.51.51,0,0,1,126.59,138.78Z" fill="#d1d3d4"></path><path d="M147.87,138.73H130.68a.45.45,0,0,1-.46-.45.46.46,0,0,1,.46-.46h17.19a.47.47,0,0,1,.46.46A.46.46,0,0,1,147.87,138.73Z" fill="#231f20"></path><path d="M171.63,138.73h-17.2a.45.45,0,0,1-.45-.45.46.46,0,0,1,.45-.46h17.2a.46.46,0,0,1,.45.46A.45.45,0,0,1,171.63,138.73Z" fill="#231f20"></path><path d="M119.59,144.94h-3.68a.5.5,0,0,1,0-1h3.68a.5.5,0,0,1,0,1Z" fill="#d1d3d4"></path><path d="M147.87,144.9h-22a.46.46,0,0,1,0-.92h22a.46.46,0,0,1,0,.92Z" fill="#231f20"></path><path d="M156.54,144.9H150.4a.46.46,0,0,1,0-.92h6.14a.46.46,0,0,1,0,.92Z" fill="#231f20"></path><path d="M121.69,151.1h-5.78a.5.5,0,0,1,0-1h5.78a.5.5,0,0,1,0,1Z" fill="#d1d3d4"></path><path d="M153.26,151.06H127.13a.46.46,0,0,1,0-.92h26.13a.46.46,0,0,1,0,.92Z" fill="#231f20"></path><path d="M166.51,151.06H155.84a.46.46,0,0,1,0-.92h10.67a.46.46,0,1,1,0,.92Z" fill="#231f20"></path><path d="M119.07,157.26H113.4a.5.5,0,1,1,0-1h5.67a.5.5,0,0,1,0,1Z" fill="#d1d3d4"></path><path d="M150.4,157.22H125.66a.46.46,0,0,1,0-.92H150.4a.46.46,0,1,1,0,.92Z" fill="#231f20"></path><path d="M124.08,163.42H113.4a.5.5,0,0,1-.5-.5.51.51,0,0,1,.5-.5h10.68a.5.5,0,0,1,.5.5A.5.5,0,0,1,124.08,163.42Z" fill="#d1d3d4"></path><path d="M136.28,169.58H115a.5.5,0,0,1-.5-.5.51.51,0,0,1,.5-.5h21.3a.5.5,0,0,1,.5.5A.5.5,0,0,1,136.28,169.58Z" fill="#d1d3d4"></path><path d="M156.54,169.54H141.73a.46.46,0,1,1,0-.91h14.81a.46.46,0,1,1,0,.91Z" fill="#231f20"></path><path d="M177,169.54H158.66a.46.46,0,1,1,0-.91H177a.46.46,0,1,1,0,.91Z" fill="#231f20"></path><path d="M147,175.74H115.91a.5.5,0,0,1-.5-.5.5.5,0,0,1,.5-.5H147a.5.5,0,0,1,.5.5A.5.5,0,0,1,147,175.74Z" fill="#d1d3d4"></path><path d="M165,175.7H151a.46.46,0,1,1,0-.91h14a.46.46,0,1,1,0,.91Z" fill="#231f20"></path><path d="M208.87,175.7H176.09a.46.46,0,1,1,0-.91h32.78a.46.46,0,1,1,0,.91Z" fill="#231f20"></path><path d="M183.3,132.57H168.87a.46.46,0,1,1,0-.91H183.3a.46.46,0,1,1,0,.91Z" fill="#231f20"></path><path d="M189,132.12c.3.14,16.44,0,16.44,0" fill="#fff"></path><path d="M194,132.64c-4.94,0-5.09-.07-5.17-.11a.46.46,0,0,1-.23-.6.46.46,0,0,1,.53-.26c.72.09,10.13,0,16.33,0a.46.46,0,0,1,.46.45.45.45,0,0,1-.46.46C200.08,132.62,196.45,132.64,194,132.64Z" fill="#231f20"></path><path d="M181,120.25H160.05a.46.46,0,1,1,0-.91H181a.46.46,0,1,1,0,.91Z" fill="#231f20"></path><path d="M206.06,120.25H185.21a.46.46,0,1,1,0-.91h20.85a.46.46,0,1,1,0,.91Z" fill="#231f20"></path><path d="M154.43,113.63c.3.07,24.16,0,24.16,0" fill="#fff"></path><path d="M161.67,114.12c-4.24,0-7.2,0-7.34,0a.46.46,0,0,1,.17-.9c.74,0,17.62,0,24.09,0h0a.45.45,0,0,1,.46.45.46.46,0,0,1-.46.46Z" fill="#231f20"></path><path d="M184.31,114.13a.48.48,0,0,1-.41-.21.51.51,0,0,1,.12-.7c.17-.11.44-.29,14.63-.09a.5.5,0,0,1,0,1h0c-5.09-.07-13.37-.15-14.16,0Z" fill="#d1d3d4"></path><path d="M164.06,157.22h-10.8a.46.46,0,1,1,0-.92h10.8a.46.46,0,0,1,0,.92Z" fill="#231f20"></path><path d="M139.27,163.38h-7.94a.47.47,0,0,1-.46-.46.46.46,0,0,1,.46-.45h7.94a.46.46,0,0,1,.46.45A.47.47,0,0,1,139.27,163.38Z" fill="#231f20"></path><path d="M161.18,163.42H142.29a.5.5,0,0,1-.5-.5.51.51,0,0,1,.5-.5h18.89a.51.51,0,0,1,.5.5A.5.5,0,0,1,161.18,163.42Z" fill="#d1d3d4"></path><path d="M201.55,163.38H165a.47.47,0,0,1-.46-.46.46.46,0,0,1,.46-.45h36.59a.46.46,0,0,1,.46.45A.47.47,0,0,1,201.55,163.38Z" fill="#231f20"></path><path d="M144.9,109.31H113.84a.5.5,0,0,1-.5-.5.51.51,0,0,1,.5-.5H144.9a.51.51,0,0,1,.5.5A.5.5,0,0,1,144.9,109.31Z" fill="#d1d3d4"></path><path d="M162.9,109.27h-14a.46.46,0,0,1,0-.91h14a.46.46,0,0,1,0,.91Z" fill="#231f20"></path><path d="M206.8,109.27H174a.46.46,0,0,1,0-.91H206.8a.46.46,0,1,1,0,.91Z" fill="#231f20"></path><path d="M128.48,182.53H114.17a.46.46,0,1,1,0-.91h14.31a.46.46,0,1,1,0,.91Z" fill="#231f20"></path><path d="M138.17,182.53h-4.24a.46.46,0,0,1,0-.91h4.24a.46.46,0,1,1,0,.91Z" fill="#231f20"></path><path d="M117.75,187.62h-6.53a.46.46,0,0,1,0-.91h6.53a.46.46,0,1,1,0,.91Z" fill="#231f20"></path><rect x="103.6" y="107.65" width="1.51" height="1.51" fill="#231f20"></rect><rect x="103.6" y="113.71" width="1.51" height="1.51" fill="#231f20"></rect><rect x="103.6" y="119.77" width="1.51" height="1.51" fill="#231f20"></rect><rect x="103.6" y="125.83" width="1.51" height="1.51" fill="#231f20"></rect><rect x="103.6" y="131.89" width="1.51" height="1.51" fill="#231f20"></rect><rect x="103.6" y="137.95" width="1.51" height="1.51" fill="#231f20"></rect><rect x="103.6" y="144.01" width="1.51" height="1.51" fill="#231f20"></rect><rect x="103.6" y="150.07" width="1.51" height="1.51" fill="#231f20"></rect><rect x="103.6" y="156.13" width="1.51" height="1.51" fill="#231f20"></rect><rect x="103.6" y="162.19" width="1.51" height="1.51" fill="#231f20"></rect><rect x="103.6" y="168.25" width="1.51" height="1.51" fill="#231f20"></rect><rect x="103.6" y="174.32" width="1.51" height="1.51" fill="#231f20"></rect><rect x="103.6" y="180.4" width="1.51" height="1.51" fill="#231f20"></rect><rect x="103.6" y="186.49" width="1.51" height="1.51" fill="#231f20"></rect><path d="M274.37,183.53h-40a.46.46,0,1,1,0-.91h40a.46.46,0,1,1,0,.91Z" fill="#231f20"></path><path d="M274.37,191.71h-40a.5.5,0,0,1-.5-.5.5.5,0,0,1,.5-.5h40a.5.5,0,0,1,.5.5A.5.5,0,0,1,274.37,191.71Z" fill="#d1d3d4"></path><path d="M269.37,199.81h-35a.46.46,0,1,1,0-.92h35a.46.46,0,0,1,0,.92Z" fill="#231f20"></path><path d="M262.19,208h-27.8a.5.5,0,0,1-.5-.5.5.5,0,0,1,.5-.5h27.8a.5.5,0,0,1,.5.5A.51.51,0,0,1,262.19,208Z" fill="#d1d3d4"></path><path d="M212,201.65H104a.46.46,0,0,1,0-.91H212a.46.46,0,1,1,0,.91Z" fill="#231f20"></path><path d="M212,208H104a.51.51,0,0,1-.5-.5.5.5,0,0,1,.5-.5H212a.5.5,0,0,1,.5.5A.5.5,0,0,1,212,208Z" fill="#d1d3d4"></path><path d="M197.24,214.24H104a.46.46,0,0,1,0-.92h93.28a.46.46,0,0,1,0,.92Z" fill="#231f20"></path><path d="M192.58,89.35s22.1-39.7,51.94-22.63S268,160.4,248.29,188,178.2,228.57,147.1,217.24c-39.41-14.36-19.62-53.28-33.7-56.59s-48.76,5-51.58.94,3.91-25.72,15.74-31.35,51.62-4.6,59.22.47,9.51,32.49,16.48,50.45c9.85,25.39,66.49,1.17,78.59-22.76s9.86-70.39,2.54-74.33-15.63,5.28-15.63,5.28l-24.92.46" fill="#68e1fd"></path><circle cx="79.95" cy="141.65" r="3.8"></circle><rect x="59.13" y="70.29" width="104.19" height="39.04" fill="#fff"></rect><path d="M163.32,109.78H59.13a.45.45,0,0,1-.46-.46v-39a.45.45,0,0,1,.46-.46H163.32a.46.46,0,0,1,.46.46v39A.46.46,0,0,1,163.32,109.78Zm-103.74-.91H162.86V70.74H59.58Z" fill="#231f20"></path><path d="M76,89.66V88.52l8-3.58v1.75l-5.38,2.4L84,91.49v1.75Z" fill="#68e1fd"></path><path d="M88.27,86.28v1.06h0a2.44,2.44,0,0,1,.37-.45,2.19,2.19,0,0,1,.56-.41A3.41,3.41,0,0,1,91,86.05a3.68,3.68,0,0,1,1.49.31,3.6,3.6,0,0,1,1.18.85,4,4,0,0,1,.76,1.28,4.46,4.46,0,0,1,.27,1.57,4.8,4.8,0,0,1-.26,1.58,4.13,4.13,0,0,1-.75,1.29,3.61,3.61,0,0,1-2.74,1.2,3.23,3.23,0,0,1-1.49-.34,2.49,2.49,0,0,1-1-.9h0v4.83H86.44V86.28Zm4.45,3.78a3.29,3.29,0,0,0-.13-.88,2.48,2.48,0,0,0-.41-.79,2.07,2.07,0,0,0-.68-.56,2,2,0,0,0-1-.22,2,2,0,0,0-.94.22,2.35,2.35,0,0,0-.71.58,2.44,2.44,0,0,0-.44.79,2.77,2.77,0,0,0-.15.89,2.67,2.67,0,0,0,.15.88,2.44,2.44,0,0,0,.44.79,2.29,2.29,0,0,0,.71.56,1.92,1.92,0,0,0,.94.22,2,2,0,0,0,1-.22,2.12,2.12,0,0,0,.68-.58,2.38,2.38,0,0,0,.41-.79A3.42,3.42,0,0,0,92.72,90.06Z" fill="#68e1fd"></path><path d="M95.36,86.28h2.11l2.13,5.54h0l1.89-5.54h2l-3.6,9.26a6.73,6.73,0,0,1-.45.93,2.76,2.76,0,0,1-.57.69,2.48,2.48,0,0,1-.79.42,3.8,3.8,0,0,1-1.09.14l-.48,0a4.37,4.37,0,0,1-.5-.09L96.19,96a1.63,1.63,0,0,0,.37.08l.34,0a1.85,1.85,0,0,0,.51-.07.93.93,0,0,0,.35-.23A1.27,1.27,0,0,0,98,95.4a5.2,5.2,0,0,0,.24-.52l.38-1Z" fill="#68e1fd"></path><path d="M103.56,87.8V86.28h1.34V84.07h1.87v2.21h1.91V87.8h-1.91v3.55a1.74,1.74,0,0,0,.18.84.87.87,0,0,0,.82.33,2.12,2.12,0,0,0,.42,0,1.19,1.19,0,0,0,.39-.12l.07,1.5A3.63,3.63,0,0,1,108,94a3.85,3.85,0,0,1-.66.06,3.06,3.06,0,0,1-1.24-.22,1.88,1.88,0,0,1-.76-.59,2.1,2.1,0,0,1-.38-.86,4.9,4.9,0,0,1-.1-1V87.8Z" fill="#68e1fd"></path><path d="M114.31,86.05a2.84,2.84,0,0,1,1.28.27,2.47,2.47,0,0,1,.87.69,2.76,2.76,0,0,1,.5,1,4,4,0,0,1,.16,1.15v4.77h-1.91v-4.2a4.15,4.15,0,0,0,0-.69,1.9,1.9,0,0,0-.19-.65,1.35,1.35,0,0,0-.43-.49,1.29,1.29,0,0,0-.74-.19,1.66,1.66,0,0,0-.8.18,1.54,1.54,0,0,0-.55.46,2.3,2.3,0,0,0-.34.66,2.78,2.78,0,0,0-.11.75v4.17h-1.91v-12H112v5.45h0a2.24,2.24,0,0,1,.33-.47,2.55,2.55,0,0,1,.5-.41,3,3,0,0,1,.65-.3A2.86,2.86,0,0,1,114.31,86.05Z" fill="#68e1fd"></path><path d="M118.9,90.06a4.05,4.05,0,0,1,.33-1.65,3.76,3.76,0,0,1,.88-1.26,3.85,3.85,0,0,1,1.32-.81,4.67,4.67,0,0,1,3.24,0,3.85,3.85,0,0,1,1.32.81,3.91,3.91,0,0,1,.88,1.26,4.29,4.29,0,0,1,0,3.3,3.91,3.91,0,0,1-2.2,2.12,4.52,4.52,0,0,1-3.24,0,3.92,3.92,0,0,1-1.32-.84,3.75,3.75,0,0,1-.88-1.28A4.05,4.05,0,0,1,118.9,90.06Zm1.94,0A3,3,0,0,0,121,91a2.58,2.58,0,0,0,.41.79,2.12,2.12,0,0,0,.68.58,2.07,2.07,0,0,0,1,.22,2,2,0,0,0,1-.22,2.06,2.06,0,0,0,.69-.58,2.36,2.36,0,0,0,.4-.79,3.06,3.06,0,0,0,.14-.89,2.94,2.94,0,0,0-.14-.88,2.45,2.45,0,0,0-.4-.79,2.07,2.07,0,0,0-1.67-.78,2,2,0,0,0-1.67.78,2.69,2.69,0,0,0-.41.79A2.93,2.93,0,0,0,120.84,90.06Z" fill="#68e1fd"></path><path d="M129,86.28h1.81V87.5h0a2.46,2.46,0,0,1,.88-1,2.54,2.54,0,0,1,1.48-.44,2.78,2.78,0,0,1,1.28.27,2.42,2.42,0,0,1,.88.69,2.76,2.76,0,0,1,.5,1,4.43,4.43,0,0,1,.16,1.15v4.77h-1.91V89.68a5.76,5.76,0,0,0,0-.7,2,2,0,0,0-.2-.66,1.48,1.48,0,0,0-.44-.49,1.35,1.35,0,0,0-.74-.19,1.58,1.58,0,0,0-.8.19,1.53,1.53,0,0,0-.54.47,1.9,1.9,0,0,0-.33.65,2.85,2.85,0,0,0-.11.76v4.2H129Z" fill="#68e1fd"></path><path d="M146.46,88.52v1.14l-8,3.58V91.49l5.37-2.4-5.37-2.4V84.94Z" fill="#68e1fd"></path><path d="M63.32,170.83h-.06c-.18,0-4.38-.56-6.29-2.17a.46.46,0,0,1,.59-.7c1.71,1.44,5.77,2,5.82,2a.46.46,0,0,1-.06.92Z" fill="#231f20"></path></g></svg>